# xmcd CD database file
#
# Track frame offsets:
#	150
#	11710
#	22545
#	35762
#	48797
#	61655
#	76260
#	89005
#	100835
#	117775
#	133782
#	149602
#	165590
#	184242
#
# Disc length: 2691 seconds
#
# Revision: 0
# Processed by: cddbd v1.5.1PL0 Copyright (c) Steve Scherf et al.
# Submitted via: CDex 1.51
#
DISCID=b00a810e
DTITLE=Die Schoppeschlepper - ... noch mehr Jazz and Jux aus Hessen
DYEAR=2000
DGENRE=Jazz
TTITLE0=Drausse in Sachsehause
TTITLE1=Dr. Jatz
TTITLE2=Immer immer widder
TTITLE3=Bretzelbube-Boogie
TTITLE4=Als her demitt!
TTITLE5=Hallo gibt's hier noch'en Handkäs?
TTITLE6=Aamal sagst de ja
TTITLE7=Oh Marie
TTITLE8=Der Scheich vom Orient
TTITLE9=Nur wege'm xxx
TTITLE10=Komm, mer petze jetzt'en Schoppe
TTITLE11=Guck' ma da!
TTITLE12=Die Latzhos'
TTITLE13=Die Frau Rauscher aus de Klappergass
EXTD=YEAR: 2000
EXTT0=
EXTT1=
EXTT2=
EXTT3=
EXTT4=
EXTT5=
EXTT6=
EXTT7=
EXTT8=
EXTT9=
EXTT10=
EXTT11=
EXTT12=
EXTT13=
PLAYORDER=
